<?xml version="1.0" standalone="no"?><!DOCTYPE svg PUBLIC "-//W3C//DTD SVG 1.1//EN" "http://www.w3.org/Graphics/SVG/1.1/DTD/svg11.dtd"><svg t="1555257349239" class="icon" style="" viewBox="0 0 1046 1024" version="1.1" xmlns="http://www.w3.org/2000/svg" p-id="3610" xmlns:xlink="http://www.w3.org/1999/xlink" width="204.296875" height="200"><defs><style type="text/css"></style></defs><path d="M0 0l0 1024 1045.787234 0L1045.787234 0 0 0zM980.425532 958.638298 65.361702 958.638298 65.361702 65.361702l915.06383 0L980.425532 958.638298z" p-id="3611"></path><path d="M217.87234 174.297872l239.659574 0 0 261.446809-239.659574 0 0-261.446809Z" p-id="3612"></path><path d="M501.106383 174.297872l0 261.446809 239.659574 0L740.765957 174.297872 501.106383 174.297872zM718.978723 413.957447l-196.085106 0L522.893617 196.085106l196.085106 0L718.978723 413.957447z" p-id="3613"></path><path d="M544.680851 566.468085l261.446809 0 0 261.446809-261.446809 0 0-261.446809Z" p-id="3614"></path><path d="M217.87234 566.468085l239.659574 0 0 261.446809-239.659574 0 0-261.446809Z" p-id="3615"></path></svg>