<?xml version="1.0" standalone="no"?><!DOCTYPE svg PUBLIC "-//W3C//DTD SVG 1.1//EN" "http://www.w3.org/Graphics/SVG/1.1/DTD/svg11.dtd"><svg t="1555257310867" class="icon" style="" viewBox="0 0 1024 1024" version="1.1" xmlns="http://www.w3.org/2000/svg" p-id="1867" xmlns:xlink="http://www.w3.org/1999/xlink" width="200" height="200"><defs><style type="text/css"></style></defs><path d="M943.481 613.707v271.886c0 9.782-3.579 18.244-10.718 25.382-7.148 7.149-15.609 10.718-25.382 10.718h-794.222c-9.782 0-18.244-3.569-25.382-10.718-7.149-7.139-10.718-15.6-10.718-25.382v-271.886c0-23.313 4.698-46.439 14.101-69.381l134.251-311.37c3.754-9.394 10.62-17.293 20.588-23.691 9.959-6.388 19.83-9.59 29.614-9.59h469.313c9.774 0 19.646 3.199 29.614 9.59 9.959 6.4 16.825 14.297 20.588 23.691l134.251 311.371c9.396 22.941 14.102 46.067 14.102 69.38zM654.109 596.785h178.246c-0.38-1.129-0.848-2.724-1.412-4.794-0.564-2.061-1.040-3.472-1.412-4.23l-119.584-279.781h-399.365l-119.584 279.781c-0.38 1.129-0.848 2.733-1.412 4.794-0.564 2.071-1.040 3.481-1.412 4.23h178.25l53.588 108.302h180.505l53.589-108.302z" p-id="1868"></path></svg>