<?xml version="1.0" standalone="no"?><!DOCTYPE svg PUBLIC "-//W3C//DTD SVG 1.1//EN" "http://www.w3.org/Graphics/SVG/1.1/DTD/svg11.dtd"><svg t="1554995071457" class="icon" style="" viewBox="0 0 1024 1024" version="1.1" xmlns="http://www.w3.org/2000/svg" p-id="4244" xmlns:xlink="http://www.w3.org/1999/xlink" width="200" height="200"><defs><style type="text/css"></style></defs><path d="M504 616.208a36.576 36.576 0 0 1-36.944-36.944v-43.6a114.176 114.176 0 0 1 64.144-103.36 62.064 62.064 0 0 0 34.72-63.536 62.752 62.752 0 0 0-54.672-54.672 61.2 61.2 0 0 0-48.768 15.52A62.16 62.16 0 0 0 441.792 376.16a36.944 36.944 0 0 1-73.888 0A136 136 0 0 1 519.36 240.96a136.576 136.576 0 0 1 44.336 258.592 41.744 41.744 0 0 0-22.16 36.944v43.584A38.08 38.08 0 0 1 504 616.208z" p-id="4245"></path><path d="M503.936 738.832m-54.672 0a54.672 54.672 0 1 0 109.344 0 54.672 54.672 0 1 0-109.344 0Z" p-id="4246"></path><path d="M512 992a484.384 484.384 0 0 1-191.856-39.824 36.32 36.32 0 0 1 28.96-66.608 409.248 409.248 0 1 0-173.024-143.344 36.448 36.448 0 0 1-60.096 41.264A480.112 480.112 0 1 1 512 992z" p-id="4247"></path></svg>